# xmcd
#
# Track frame offsets: 
#        150
#        20543
#        38597
#        55383
#        75484
#        91291
#        110948
#        124566
#        141029
#        159142
#        174908
#        188366
#        203305
#        222501
#        244595
#        257927
#        271453
#        285240
#        300706
#        320435
#
# Disc length: 4504 seconds
#
# Revision: 3
# Processed by: cddbd v1.5.2PL0 Copyright (c) Steve Scherf et al.
# Submitted via: ExactAudioCopy v0.99pb5
#
DISCID=06119614
DTITLE=Brooks and Dunn - The Very Best Of Brooks and Dunn
DYEAR=2004
DGENRE=Country
TTITLE0=Only In America
TTITLE1=That's What It's All About
TTITLE2=Rock My World (Little Country Girl)
TTITLE3=The Long Goodbye
TTITLE4=My Maria
TTITLE5=Red Dirt Road
TTITLE6=Independent Trucker
TTITLE7=Ain't Nothing 'Bout You
TTITLE8=If You See Him/If You See Her
TTITLE9=You Can't Take The Honky Tonk Out Of The Girl
TTITLE10=Hard Workin' Man
TTITLE11=Boot Scootin' Boogie
TTITLE12=It's Getting Better All The Time
TTITLE13=You're Gonna Miss Me When I'm Gone
TTITLE14=My Next Broken Heart
TTITLE15=Brand New Man
TTITLE16=Little Miss Honky Tonk
TTITLE17=She's Not The Cheatin' Kind
TTITLE18=Neon Moon
TTITLE19=South Of Santa Fe
EXTD=YEAR: 2004
EXTT0=
EXTT1=
EXTT2=
EXTT3=
EXTT4=
EXTT5=
EXTT6=
EXTT7=
EXTT8=
EXTT9=
EXTT10=
EXTT11=
EXTT12=
EXTT13=
EXTT14=
EXTT15=
EXTT16=
EXTT17=
EXTT18=
EXTT19=
PLAYORDER=
